<svg viewBox="0 0 569.7977647847003 145.97177059694533" height="101.32499331288014" width="395.52"><g transform="matrix(1,0,0,1,174.27776478470042,43.01037509439104)"><svg viewBox="0 0 395.52 59.95102040816326" height="59.95102040816326" width="395.52"><g id="textblocktransform"><svg viewBox="0 0 395.52 59.95102040816326" height="59.95102040816326" width="395.52" id="textblock"><g><svg viewBox="0 0 395.52 59.95102040816326" height="59.95102040816326" width="395.52"><g transform="matrix(1,0,0,1,0,0)"><svg width="395.52" viewBox="3.8499999046325684 -37.650001525878906 252.32998657226562 38.25" height="59.95102040816326" data-palette-color="#dedad7"><path d="M9.15 0L3.85 0 3.85-34.9 29.15-34.9 29.15-30.4 9.15-30.4 9.15-20.35 23-20.35 23-15.85 9.15-15.85 9.15 0ZM49.05 0.6L49.05 0.6Q44.8 0.6 41.7-1.13 38.6-2.85 36.95-6.08 35.3-9.3 35.3-13.8L35.3-13.8Q35.3-18.3 36.97-21.5 38.65-24.7 41.77-26.4 44.9-28.1 49.25-28.1L49.25-28.1Q55.9-28.1 59.15-24.43 62.4-20.75 62-14.35L62-14.35 39.3-14.35 39.35-18.15 56.85-18.1Q56.65-20.75 54.55-22.35 52.45-23.95 49.25-23.95L49.25-23.95Q44.95-23.95 42.65-21.25 40.35-18.55 40.35-13.6L40.35-13.6Q40.35-10.65 41.37-8.38 42.4-6.1 44.35-4.85 46.3-3.6 49.05-3.6L49.05-3.6Q52.3-3.6 54.47-5.15 56.65-6.7 57.15-9.35L57.15-9.35 62.2-9.35Q61.55-4.7 58.05-2.05 54.55 0.6 49.05 0.6ZM79.8-28.1L79.8-28.1Q82.65-28.1 85-26.98 87.34-25.85 88.8-23.85L88.8-23.85 88.8-36.75 93.8-36.75 93.8 0 89.05 0 88.9-3.85Q87.45-1.85 85.07-0.63 82.7 0.6 79.8 0.6L79.8 0.6Q76.15 0.6 73.34-1.25 70.55-3.1 68.97-6.35 67.4-9.6 67.4-13.75L67.4-13.75Q67.4-17.95 68.97-21.2 70.55-24.45 73.34-26.28 76.15-28.1 79.8-28.1ZM80.9-3.65L80.9-3.65Q83.59-3.65 85.7-5.18 87.8-6.7 88.8-9.3L88.8-9.3 88.8-18.25Q87.8-20.9 85.7-22.38 83.59-23.85 80.9-23.85L80.9-23.85Q78.4-23.85 76.5-22.58 74.59-21.3 73.52-19.03 72.45-16.75 72.45-13.75L72.45-13.75Q72.45-10.8 73.52-8.53 74.59-6.25 76.5-4.95 78.4-3.65 80.9-3.65ZM114.34 0.6L114.34 0.6Q109.74 0.6 106.37-1.73 102.99-4.05 101.17-8.13 99.34-12.2 99.34-17.5L99.34-17.5Q99.34-23 101.24-27.05 103.14-31.1 106.57-33.3 109.99-35.5 114.54-35.5L114.54-35.5Q118.19-35.5 121.17-34.08 124.14-32.65 126.02-29.98 127.89-27.3 128.19-23.6L128.19-23.6 122.39-23.6Q121.99-26.95 119.89-28.98 117.79-31 114.49-31L114.49-31Q111.64-31 109.47-29.38 107.29-27.75 106.09-24.7 104.89-21.65 104.89-17.45L104.89-17.45Q104.89-13.25 106.12-10.2 107.34-7.15 109.49-5.53 111.64-3.9 114.34-3.9L114.34-3.9Q116.69-3.9 118.44-4.88 120.19-5.85 121.27-7.6 122.34-9.35 122.54-11.7L122.54-11.7 128.39-11.7Q128.04-8 126.24-5.23 124.44-2.45 121.42-0.93 118.39 0.6 114.34 0.6ZM158.69 0L153.64 0 153.64-17.3Q153.64-20.25 151.99-22.03 150.34-23.8 147.69-23.8L147.69-23.8Q144.64-23.8 142.27-21.58 139.89-19.35 138.49-14.65L138.49-14.65 137.69-20.25Q139.24-24.2 142.17-26.15 145.09-28.1 148.54-28.1L148.54-28.1Q151.64-28.1 153.92-26.78 156.19-25.45 157.44-23.08 158.69-20.7 158.69-17.5L158.69-17.5 158.69 0ZM139.09 0L134.04 0 134.04-36.8 139.09-36.8 139.09 0ZM190.74 0L185.94 0 185.74-6.25 185.74-18Q185.74-20.95 183.81-22.63 181.89-24.3 178.54-24.3L178.54-24.3Q175.29-24.3 173.24-22.83 171.19-21.35 170.99-18.75L170.99-18.75 166.04-18.75Q166.29-21.7 167.94-23.78 169.59-25.85 172.34-26.98 175.09-28.1 178.69-28.1L178.69-28.1Q182.39-28.1 185.09-26.88 187.79-25.65 189.26-23.35 190.74-21.05 190.74-17.75L190.74-17.75 190.74 0ZM175.99 0.6L175.99 0.6Q173.29 0.6 171.24-0.38 169.19-1.35 168.04-3.18 166.89-5 166.89-7.45L166.89-7.45Q166.89-11.7 170.16-14.05 173.44-16.4 179.34-16.4L179.34-16.4 186.39-16.4 186.39-12.65 179.14-12.65Q175.74-12.65 173.81-11.35 171.89-10.05 171.89-7.7L171.89-7.7Q171.89-5.75 173.26-4.65 174.64-3.55 176.99-3.55L176.99-3.55Q179.99-3.55 182.31-5.18 184.64-6.8 186.09-9.65L186.09-9.65 186.64-5.95Q185.34-2.8 182.64-1.1 179.94 0.6 175.99 0.6ZM214.04 0L208.99 0 208.99-27.5 214.04-27.5 214.04 0ZM223.49 0L198.84 0 198.84-4.1 223.49-4.1 223.49 0ZM211.49-23.4L202.49-23.4 202.49-27.5 211.49-27.5 211.49-23.4ZM214.29-32.2L208.64-32.2 208.64-37.65 214.29-37.65 214.29-32.2ZM256.18 0L251.13 0 251.13-17.35Q251.13-20.25 249.48-22.03 247.83-23.8 245.18-23.8L245.18-23.8Q242.13-23.8 239.76-21.58 237.38-19.35 235.98-14.65L235.98-14.65 235.18-20.3Q236.73-24.2 239.66-26.15 242.58-28.1 246.03-28.1L246.03-28.1Q249.13-28.1 251.41-26.78 253.68-25.45 254.93-23.1 256.18-20.75 256.18-17.55L256.18-17.55 256.18 0ZM236.58 0L231.53 0 231.53-27.5 236.33-27.5 236.58-21.3 236.58 0Z" opacity="1" transform="matrix(1,0,0,1,0,0)" fill="#dedad7" class="wordmark-text-0" data-fill-palette-color="primary" id="text-0"></path></svg></g></svg></g></svg></g></svg></g><g><svg viewBox="0 0 145.97177059694533 145.97177059694533" height="145.97177059694533" width="145.97177059694533"><g><svg></svg></g><g id="icon-0"><svg viewBox="0 0 145.97177059694533 145.97177059694533" height="145.97177059694533" width="145.97177059694533"><g><path d="M0 72.986c0-40.309 32.677-72.986 72.986-72.986 40.309 0 72.986 32.677 72.986 72.986 0 40.309-32.677 72.986-72.986 72.986-40.309 0-72.986-32.677-72.986-72.986zM72.986 140.565c37.323 0 67.579-30.256 67.579-67.579 0-37.323-30.256-67.579-67.579-67.58-37.323 0-67.579 30.256-67.58 67.58 0 37.323 30.256 67.579 67.58 67.579z" data-fill-palette-color="accent" fill="#fcd535" stroke="transparent"></path></g><g transform="matrix(1,0,0,1,30.749087811570526,57.7806382031879)"><svg viewBox="0 0 84.47359497380428 30.41049419056954" height="30.41049419056954" width="84.47359497380428"><g><svg xmlns="http://www.w3.org/2000/svg" xml:space="preserve" viewBox="0 32 100 36" x="0" y="0" height="30.41049419056954" width="84.47359497380428" class="icon-b-0" data-fill-palette-color="accent" id="b-0"><path d="M82 32H51c-9.925 0-18 7.851-18 17.5V51h10v-1.5c0-4.136 3.589-7.5 8-7.5h31c4.411 0 8 3.589 8 8 0 4.506-2.419 8-4.5 8H76a5 5 0 1 0 0 10h9.5c7.995 0 14.5-8.075 14.5-18s-8.075-18-18-18" fill="#fcd535" data-fill-palette-color="accent"></path><path d="M57 50.5c0 4.136-3.589 7.5-8 7.5H18c-4.411 0-8-3.589-8-8 0-4.506 2.419-8 4.5-8H24a5 5 0 1 0 0-10h-9.5C6.505 32 0 40.075 0 50s8.075 18 18 18h31c9.925 0 18-7.851 18-17.5V49H57z" fill="#fcd535" data-fill-palette-color="accent"></path></svg></g></svg></g></svg></g></svg></g></svg>
